<svg xmlns="http://www.w3.org/2000/svg" viewBox="0 0 800 1000" role="img"><defs>
<linearGradient id="bg" x1="0" y1="0" x2="0" y2="1"><stop offset="0" stop-color="#1C1917"/><stop offset="1" stop-color="#0C0A09"/></linearGradient>
<radialGradient id="gl" cx="0.5" cy="0.36" r="0.6"><stop offset="0" stop-color="#C2410C" stop-opacity="0.30"/><stop offset="1" stop-color="#C2410C" stop-opacity="0"/></radialGradient>
</defs>
<rect width="800" height="1000" fill="url(#bg)"/><line x1="80" y1="0" x2="80" y2="1000" stroke="#FAFAF9" stroke-opacity="0.05"/><line x1="160" y1="0" x2="160" y2="1000" stroke="#FAFAF9" stroke-opacity="0.05"/><line x1="240" y1="0" x2="240" y2="1000" stroke="#FAFAF9" stroke-opacity="0.05"/><line x1="320" y1="0" x2="320" y2="1000" stroke="#FAFAF9" stroke-opacity="0.05"/><line x1="400" y1="0" x2="400" y2="1000" stroke="#FAFAF9" stroke-opacity="0.05"/><line x1="480" y1="0" x2="480" y2="1000" stroke="#FAFAF9" stroke-opacity="0.05"/><line x1="560" y1="0" x2="560" y2="1000" stroke="#FAFAF9" stroke-opacity="0.05"/><line x1="640" y1="0" x2="640" y2="1000" stroke="#FAFAF9" stroke-opacity="0.05"/><line x1="720" y1="0" x2="720" y2="1000" stroke="#FAFAF9" stroke-opacity="0.05"/><line x1="0" y1="80" x2="800" y2="80" stroke="#FAFAF9" stroke-opacity="0.05"/><line x1="0" y1="160" x2="800" y2="160" stroke="#FAFAF9" stroke-opacity="0.05"/><line x1="0" y1="240" x2="800" y2="240" stroke="#FAFAF9" stroke-opacity="0.05"/><line x1="0" y1="320" x2="800" y2="320" stroke="#FAFAF9" stroke-opacity="0.05"/><line x1="0" y1="400" x2="800" y2="400" stroke="#FAFAF9" stroke-opacity="0.05"/><line x1="0" y1="480" x2="800" y2="480" stroke="#FAFAF9" stroke-opacity="0.05"/><line x1="0" y1="560" x2="800" y2="560" stroke="#FAFAF9" stroke-opacity="0.05"/><line x1="0" y1="640" x2="800" y2="640" stroke="#FAFAF9" stroke-opacity="0.05"/><line x1="0" y1="720" x2="800" y2="720" stroke="#FAFAF9" stroke-opacity="0.05"/><line x1="0" y1="800" x2="800" y2="800" stroke="#FAFAF9" stroke-opacity="0.05"/><line x1="0" y1="880" x2="800" y2="880" stroke="#FAFAF9" stroke-opacity="0.05"/><line x1="0" y1="960" x2="800" y2="960" stroke="#FAFAF9" stroke-opacity="0.05"/><rect width="800" height="1000" fill="url(#gl)"/>
<rect x="14" y="14" width="772" height="972" fill="none" stroke="#FAFAF9" stroke-opacity="0.14" stroke-width="2"/><text x="400" y="84" text-anchor="middle" font-family="ui-monospace, SFMono-Regular, Menlo, monospace" font-size="24" letter-spacing="8" fill="#A8A29E">ELITE HUMAN</text><rect x="170" y="430" width="230" height="300" rx="8" fill="#E7E5E4" stroke="#0C0A09" stroke-width="7" stroke-linejoin="round"/>
<path d="M215 430 C215 370 275 370 275 430 M325 430 C325 370 385 370 385 430" fill="none" stroke="#0C0A09" stroke-width="9"/>
<rect x="195" y="500" width="180" height="18" fill="#0C0A09"/><rect x="195" y="526" width="180" height="18" fill="#A8A29E"/><rect x="195" y="552" width="120" height="18" fill="#C2410C"/>
<text x="285" y="640" text-anchor="middle" font-family="ui-monospace, SFMono-Regular, Menlo, monospace" font-size="24" letter-spacing="3" fill="#0C0A09">PRACTICE</text>
<rect x="450" y="330" width="64" height="56" rx="10" fill="#292524" stroke="#0C0A09" stroke-width="7" stroke-linejoin="round"/>
<rect x="428" y="386" width="108" height="344" rx="42" fill="#E7E5E4" stroke="#0C0A09" stroke-width="7" stroke-linejoin="round"/>
<rect x="428" y="520" width="108" height="56" fill="#C2410C" stroke="#0C0A09" stroke-width="5"/>
<text x="482" y="556" text-anchor="middle" font-family="system-ui, -apple-system, 'Segoe UI', sans-serif" font-weight="800" font-size="30" fill="#FAFAF9">EH</text>
<line x1="448" y1="420" x2="448" y2="700" stroke="#0C0A09" stroke-opacity="0.25" stroke-width="4"/>
<rect x="200" y="770" width="400" height="40" rx="20" fill="#292524" stroke="#0C0A09" stroke-width="7" stroke-linejoin="round" transform="rotate(-8 400 790)"/>
<rect x="200" y="770" width="400" height="40" rx="20" fill="none" stroke="#D6D3D1" stroke-width="3" stroke-dasharray="10 8" transform="rotate(6 400 790)"/><text x="400" y="928" text-anchor="middle" font-family="ui-monospace, SFMono-Regular, Menlo, monospace" font-size="30" letter-spacing="6" fill="#FAFAF9">PRACTICE KIT</text>
<text x="400" y="964" text-anchor="middle" font-family="ui-monospace, SFMono-Regular, Menlo, monospace" font-size="22" letter-spacing="6" fill="#C2410C">SPIRIT · BUNDLE</text></svg>
